<?xml version="1.0" encoding="UTF-8"?>
<svg version="1.1" xmlns="http://www.w3.org/2000/svg" width="1428" height="1920">
<path d="M0 0 C1.12085999 -0.01062469 2.24171997 -0.02124939 3.39654541 -0.03219604 C64.47622469 -0.47549917 107.60780755 31.47664823 156.125 64.5 C156.99502655 65.09127686 157.8650531 65.68255371 158.76144409 66.29174805 C161.31624232 68.02850479 163.86932044 69.76776033 166.421875 71.5078125 C167.55258171 72.276129 167.55258171 72.276129 168.70613098 73.05996704 C175.75762614 77.87600928 182.57536681 82.98370095 189.36279297 88.16259766 C191.9318506 90.11234796 194.53114953 92.02091331 197.125 93.9375 C212.96214571 105.82073145 228.14117495 118.66206527 242.64550781 132.13378906 C244.60770693 133.94574719 246.59195699 135.73314274 248.57324219 137.52416992 C257.58440116 145.69773428 266.44884511 154.13836701 274.328125 163.421875 C276.19477008 165.58069061 278.12360383 167.67518651 280.06542969 169.76635742 C285.67807892 175.81552481 290.95661741 182.06436975 296.125 188.5 C297.14479469 189.75214871 298.16569839 191.00339473 299.1875 192.25390625 C304.43802261 198.68399618 309.64849288 205.13840459 314.75 211.6875 C318.78351626 216.86214906 322.95329824 221.89879599 327.21142578 226.88964844 C331.2922274 231.67665829 335.23070559 236.5608949 339.125 241.5 C339.97505539 242.56787157 340.82532897 243.63556949 341.67578125 244.703125 C373.6805893 284.99571107 392.84505572 326.63979445 404.875 376.5625 C405.39451627 378.70615942 405.91413074 380.84979505 406.43383789 382.9934082 C407.75197217 388.44079752 409.06083471 393.89037082 410.36676025 399.34069824 C411.09727659 402.38448692 411.83189101 405.42725495 412.56787109 408.46972656 C417.93946561 430.70528246 422.94141757 452.82933383 426.125 475.5 C426.28581055 476.57362793 426.44662109 477.64725586 426.61230469 478.75341797 C428.76492514 493.34907234 429.42467312 507.83161826 429.5 522.5625 C429.50794586 523.37331024 429.51589172 524.18412048 429.52407837 525.01950073 C429.74372304 554.10008596 422.86566752 579.32478643 402.1171875 600.65625 C395.9503068 606.90621135 389.74685649 613.03887866 383.09863281 618.77807617 C379.74010834 621.70826829 376.49785004 624.76080724 373.25 627.8125 C372.60675781 628.41255859 371.96351562 629.01261719 371.30078125 629.63085938 C369.95958777 630.88872427 368.62975304 632.15879167 367.31054688 633.43969727 C365.75214653 634.90879249 364.13639324 636.31801539 362.48632812 637.68334961 C355.38942741 643.90213091 353.49076924 649.07598761 352.57824707 658.38433838 C352.29709359 661.22449511 351.91521991 664.048655 351.53875732 666.87750244 C351.34626404 668.32626766 351.15815148 669.77562168 350.97442627 671.2255249 C346.95723261 702.57994863 337.12151086 735.73295654 323.8984375 764.44140625 C323.55635254 765.19832764 323.21426758 765.95524902 322.86181641 766.73510742 C322.23594296 768.09230206 321.58225994 769.43728487 320.89208984 770.76293945 C319.05474536 774.72580811 319.07914693 776.93233194 320.54248047 781.04174805 C322.98077697 789.47490038 322.55701351 798.04334156 322.5234375 806.74609375 C322.52546298 808.60734674 322.52837834 810.46859895 322.53213501 812.32984924 C322.53653717 816.21550105 322.5301964 820.10094481 322.51611328 823.98657227 C322.49903472 828.93671231 322.50886769 833.88636375 322.52683067 838.83648586 C322.537736 842.67580259 322.53419121 846.51500587 322.5264473 850.35432625 C322.52446327 852.17815269 322.52684045 854.00198984 322.53388596 855.82580376 C322.5886852 873.9956177 319.92900249 889.67267567 307.125 903.5 C295.35787331 914.64356955 280.57762274 920.15691924 264.39453125 919.8046875 C259.13971733 919.31499158 254.16570472 918.02583494 249.125 916.5 C248.99327393 917.31416382 248.99327393 917.31416382 248.85888672 918.14477539 C247.39389388 926.30390219 244.8737729 934.09301317 242.25 941.9375 C242.00990204 942.65765289 241.76980408 943.37780579 241.52243042 944.11978149 C228.92776773 981.65455461 209.90619672 1016.61402326 185.125 1047.5 C184.69848145 1048.03689453 184.27196289 1048.57378906 183.83251953 1049.12695312 C179.16430863 1054.99772546 174.28082874 1060.63910011 169.2265625 1066.1796875 C167.40217206 1068.19397731 165.63406198 1070.24148614 163.875 1072.3125 C156.85093824 1080.36806734 149.12683024 1088.02591769 140.97265625 1094.93359375 C139.60724087 1096.09116577 138.26402054 1097.27503499 136.93359375 1098.47265625 C135.85271484 1099.44525391 135.85271484 1099.44525391 134.75 1100.4375 C134.10289062 1101.02402344 133.45578125 1101.61054687 132.7890625 1102.21484375 C131.125 1103.5 131.125 1103.5 129.125 1103.5 C129.455 1104.49 129.785 1105.48 130.125 1106.5 C130.19916388 1108.54908773 130.210446 1110.60063783 130.18901062 1112.6509552 C130.17334549 1114.58308365 130.17334549 1114.58308365 130.15736389 1116.554245 C130.14937838 1117.24993277 130.14139286 1117.94562054 130.13316536 1118.66238976 C130.09864461 1121.67752576 130.07537204 1124.69272291 130.05117857 1127.70795667 C130.0379964 1129.33240024 130.02421016 1130.956839 130.00986516 1132.58127272 C129.91908775 1143.02189632 129.90125853 1153.46276167 129.87893808 1163.90371668 C129.85663902 1174.06495062 129.81204503 1184.22485587 129.6965332 1194.38549805 C129.60488689 1202.45886572 129.56327362 1210.53076812 129.57939845 1218.60466403 C129.58610241 1222.8731528 129.5684461 1227.13826126 129.49014854 1231.40610695 C128.2598657 1251.33797211 128.2598657 1251.33797211 136.05878162 1268.67802715 C138.42005846 1270.82577019 140.8543253 1272.67981927 143.53412819 1274.41063499 C145.69699527 1275.89167935 147.25301477 1277.7064533 148.875 1279.75 C153.00468607 1284.61454249 157.58217294 1289.02497633 162.125 1293.5 C167.39554566 1298.6918808 172.53929857 1303.89082714 177.35546875 1309.5078125 C180.76488268 1313.34622553 184.46563314 1316.90203192 188.125 1320.5 C193.07578156 1325.36771476 197.85907634 1330.2728756 202.38330078 1335.54003906 C206.07914137 1339.69902536 210.14086984 1343.5131378 214.13476562 1347.3828125 C214.77994141 1348.01703125 215.42511719 1348.65125 216.08984375 1349.3046875 C216.6737085 1349.87171387 217.25757324 1350.43874023 217.85913086 1351.02294922 C219.125 1352.5 219.125 1352.5 219.125 1354.5 C220.115 1354.83 221.105 1355.16 222.125 1355.5 C223.84375 1357.2421875 223.84375 1357.2421875 225.625 1359.375 C226.78591504 1360.75485955 227.95233402 1362.13011292 229.125 1363.5 C229.76182315 1364.29290562 229.76182315 1364.29290562 230.41151142 1365.10182953 C232.75528195 1367.01429676 234.25531044 1366.87622524 237.25956726 1366.87854004 C238.32284744 1366.88674271 239.38612762 1366.89494537 240.48162842 1366.90339661 C241.64873352 1366.89724838 242.81583862 1366.89110016 244.01831055 1366.88476562 C245.86308739 1366.89282478 245.86308739 1366.89282478 247.74513245 1366.90104675 C250.42500635 1366.91085104 253.10426566 1366.91525004 255.78409386 1366.91069031 C260.04625721 1366.90386016 264.30815264 1366.91979349 268.57026672 1366.93908691 C277.65099652 1366.97698356 286.73170338 1366.98969474 295.8125 1367 C305.5466038 1367.01111151 315.28058241 1367.02705287 325.01460296 1367.07071257 C328.54436309 1367.08584707 332.07391179 1367.09507957 335.60370445 1367.08930969 C352.6758655 1367.06292044 369.24753946 1367.84906614 386.125 1370.5 C386.84734927 1370.61204647 387.56969854 1370.72409294 388.31393719 1370.83953476 C456.49704599 1381.54670526 525.2751396 1418.89326507 567.125 1474.5 C567.59969727 1475.12003906 568.07439453 1475.74007813 568.56347656 1476.37890625 C577.53505484 1488.14747315 585.17616542 1500.44044645 592.125 1513.5 C592.50495117 1514.20914551 592.88490234 1514.91829102 593.27636719 1515.64892578 C606.59168465 1540.9234846 613.33791739 1569.11578084 615.546875 1597.421875 C615.67311714 1598.99010892 615.79964148 1600.55832014 615.92642212 1602.12651062 C617.47921115 1621.48703055 618.87767164 1640.85979965 620.27720642 1660.23187256 C620.58050542 1664.42567038 620.88532094 1668.61935754 621.19005585 1672.81305122 C623.28034592 1701.58673703 625.32677401 1730.36338921 627.33968163 1759.14258289 C628.44810379 1774.98747358 629.57749511 1790.83008041 630.79107666 1806.66729736 C631.70069065 1818.55365401 632.54936499 1830.44403513 633.3828125 1842.3359375 C633.43870796 1843.13296333 633.49460342 1843.92998917 633.55219269 1844.7511673 C634.12053955 1852.85728237 634.68712955 1860.96351612 635.24934578 1869.07005882 C635.46122761 1872.12142786 635.67427552 1875.17271483 635.88753891 1878.22398758 C635.98711223 1879.65292144 636.08614049 1881.0818934 636.18457413 1882.51090622 C636.79557098 1891.52152346 636.79557098 1891.52152346 637.69287109 1900.50634766 C638.26757914 1907.14763489 638.125 1913.83389278 638.125 1920.5 C166.885 1920.5 -304.355 1920.5 -789.875 1920.5 C-789.875 1906.59917871 -789.69862181 1893.11036156 -788.57421875 1879.3203125 C-788.43651405 1877.54972025 -788.29971397 1875.77905746 -788.16374207 1874.0083313 C-787.88072533 1870.33325859 -787.59372415 1866.65853096 -787.3036499 1862.98400879 C-786.68210706 1855.07771109 -786.10533896 1847.16814367 -785.52587318 1839.25867271 C-785.19552463 1834.75701094 -784.86181076 1830.25559841 -784.52856445 1825.75415039 C-781.63015338 1786.56061352 -778.77028885 1747.36440119 -775.9470253 1708.16537857 C-775.68813927 1704.57137465 -775.42909438 1700.97738221 -775.17001343 1697.38339233 C-772.91224225 1666.07611504 -772.91224225 1666.07611504 -770.69795036 1634.76574135 C-770.55405711 1632.71084409 -770.40974622 1630.65597663 -770.26527405 1628.60112 C-769.8609694 1622.84838568 -769.45921847 1617.09552161 -769.06567383 1611.34204102 C-766.8808447 1579.80844327 -766.8808447 1579.80844327 -763.125 1565 C-762.86187012 1563.94031006 -762.59874023 1562.88062012 -762.32763672 1561.78881836 C-753.03171201 1525.16154624 -735.26682135 1491.57355406 -709.875 1463.5 C-709.12041504 1462.66299561 -709.12041504 1462.66299561 -708.35058594 1461.80908203 C-704.90157067 1457.99808033 -701.40361522 1454.23737889 -697.875 1450.5 C-697.23949219 1449.82195312 -696.60398437 1449.14390625 -695.94921875 1448.4453125 C-691.87044534 1444.22052095 -687.39271923 1440.55631543 -682.81640625 1436.8828125 C-680.86394799 1435.30113981 -678.93366854 1433.69166873 -677.02734375 1432.0546875 C-669.37767602 1425.48606299 -661.3912597 1419.87620824 -652.875 1414.5 C-652.14313477 1414.03335937 -651.41126953 1413.56671875 -650.65722656 1413.0859375 C-618.37570055 1392.63140005 -582.89426069 1379.03196288 -545.4375 1371.6875 C-544.44508301 1371.4925293 -543.45266602 1371.29755859 -542.43017578 1371.09667969 C-523.40052082 1367.57117263 -504.66819859 1367.22169572 -485.38562346 1367.29721212 C-481.59405474 1367.30988134 -477.80248139 1367.31090253 -474.01089478 1367.31326294 C-466.86098046 1367.31943088 -459.71112874 1367.33577684 -452.56124175 1367.35596192 C-444.40863038 1367.37846859 -436.25601572 1367.38935113 -428.10338092 1367.39935279 C-411.36055089 1367.42014836 -394.61778348 1367.45523111 -377.875 1367.5 C-377.57768478 1366.87893372 -377.28036957 1366.25786743 -376.9740448 1365.61798096 C-375.73374559 1363.22778711 -374.28986519 1361.61186965 -372.42578125 1359.671875 C-371.40000977 1358.59486328 -371.40000977 1358.59486328 -370.35351562 1357.49609375 C-369.28133789 1356.38427734 -369.28133789 1356.38427734 -368.1875 1355.25 C-362.94310941 1349.77716978 -357.83645356 1344.23050641 -352.875 1338.5 C-351.42109193 1336.87103946 -349.96342268 1335.24541821 -348.5 1333.625 C-347.73945313 1332.78195312 -346.97890625 1331.93890625 -346.1953125 1331.0703125 C-345.04675781 1329.79800781 -345.04675781 1329.79800781 -343.875 1328.5 C-342.37471321 1326.83359149 -340.87471128 1325.16692647 -339.375 1323.5 C-337.1032871 1320.97499507 -334.83064586 1318.45086696 -332.5546875 1315.9296875 C-329.17587292 1312.18435744 -325.80604035 1308.43481793 -322.5 1304.625 C-319.04648439 1300.65747276 -315.4849606 1296.7915236 -311.92236328 1292.92236328 C-309.36974237 1290.14541318 -306.84531795 1287.35036687 -304.375 1284.5 C-300.97536141 1280.57734009 -297.45994558 1276.76384828 -293.94384766 1272.94604492 C-290.611051 1269.32074526 -287.33960348 1265.64929062 -284.1171875 1261.92578125 C-283.39388012 1261.09556994 -282.6535963 1260.2785963 -281.875 1259.5 C-281.74203198 1257.89370134 -281.67765332 1256.28167963 -281.64035034 1254.6703186 C-281.61440796 1253.62465729 -281.58846558 1252.57899597 -281.56173706 1251.50164795 C-281.52706833 1249.76567352 -281.52706833 1249.76567352 -281.49169922 1247.99462891 C-281.45051971 1246.17748886 -281.45051971 1246.17748886 -281.4085083 1244.32363892 C-281.1683154 1233.1178218 -281.02333851 1221.91050282 -280.91206169 1210.70272255 C-280.83555962 1203.1693829 -280.72718315 1195.63932912 -280.53759766 1188.10791016 C-280.37218251 1181.53601184 -280.26744356 1174.96640463 -280.23482525 1168.39245546 C-280.2156045 1164.91466572 -280.16750867 1161.44302978 -280.04702377 1157.96715164 C-278.97924578 1143.96297167 -278.97924578 1143.96297167 -283.53990173 1131.2800827 C-287.51813092 1127.66469575 -291.93027151 1125.39772762 -296.87502575 1123.37344456 C-299.60090281 1122.18297799 -301.87505461 1120.545859 -304.234375 1118.75 C-304.97034912 1118.21028564 -305.70632324 1117.67057129 -306.46459961 1117.11450195 C-307.17753174 1116.58171631 -307.89046387 1116.04893066 -308.625 1115.5 C-309.41592041 1114.9124292 -310.20684082 1114.3248584 -311.02172852 1113.71948242 C-317.88248709 1108.57826809 -324.45835852 1103.18282344 -330.875 1097.5 C-331.761875 1096.72398438 -332.64875 1095.94796875 -333.5625 1095.1484375 C-340.10764252 1089.29127871 -346.36370468 1083.13736681 -352.59768677 1076.95254517 C-354.0194053 1075.54273377 -355.44506788 1074.13690321 -356.87084961 1072.73120117 C-362.97744729 1066.63223606 -368.52248002 1060.26594487 -373.875 1053.5 C-375.01269732 1052.09869562 -376.15069273 1050.69763316 -377.2890625 1049.296875 C-390.9381287 1032.20834454 -402.73372118 1013.87025723 -412.875 994.5 C-413.21547363 993.85611328 -413.55594727 993.21222656 -413.90673828 992.54882812 C-416.34191285 987.91784895 -418.64611877 983.23353228 -420.875 978.5 C-421.25624023 977.69062988 -421.63748047 976.88125977 -422.03027344 976.04736328 C-427.58157652 964.11049601 -432.27019697 951.97606063 -436.4375 939.5 C-436.65541199 938.85166199 -436.87332397 938.20332397 -437.09783936 937.53533936 C-439.22219636 931.17923571 -441.05840441 925.17158068 -441.875 918.5 C-442.73867188 918.65984375 -443.60234375 918.8196875 -444.4921875 918.984375 C-458.89532919 921.17977304 -472.58301742 918.32938942 -484.875 910.5 C-497.93218833 900.64122386 -505.293393 888.75207871 -508.43997192 872.70115662 C-509.3733312 865.83302699 -509.18242754 858.87245954 -509.17578125 851.953125 C-509.17967782 850.25217588 -509.18401444 848.55122771 -509.18876648 846.85028076 C-509.19619504 843.29663938 -509.19596261 839.7430974 -509.19067383 836.18945312 C-509.18489301 831.67331846 -509.20179303 827.15759578 -509.2250185 822.64152908 C-509.23987429 819.13069344 -509.24061143 815.61995423 -509.23750877 812.10909271 C-509.23801636 810.44600359 -509.2431463 808.78290824 -509.25332069 807.11985016 C-509.31819976 795.03090085 -509.30677274 782.77927682 -502.8359375 772.13671875 C-500.80696509 767.94976853 -500.75807353 765.37716137 -502.16755676 760.92298889 C-503.20944344 758.09190148 -504.34346208 755.31197851 -505.5397644 752.54275513 C-507.19219658 748.70479563 -508.70220657 744.81054982 -510.23046875 740.921875 C-510.54434036 740.13257095 -510.85821198 739.34326691 -511.18159485 738.53004456 C-514.21040368 730.8383961 -516.62950103 723.03100383 -518.8125 715.0625 C-518.99293854 714.40493713 -519.17337708 713.74737427 -519.35928345 713.06988525 C-526.93492296 685.20854249 -533.0584732 656.44587497 -533.875 627.5 C-534.8959375 627.29697266 -534.8959375 627.29697266 -535.9375 627.08984375 C-555.33268346 622.7826687 -570.72895256 613.15895255 -584.875 599.5 C-585.55691406 598.86964844 -586.23882813 598.23929688 -586.94140625 597.58984375 C-608.17184515 577.49929418 -614.67682619 547.65566185 -615.75195312 519.62792969 C-617.12879643 465.05904008 -601.98084999 425.97325588 -571.69668579 381.17149353 C-548.92436383 347.45810247 -531.53874357 311.32045416 -514.89459229 274.32055664 C-501.37587337 244.27146036 -487.59094742 214.40876813 -470.49951172 186.18896484 C-468.87928604 183.50709445 -467.28243092 180.81256065 -465.69140625 178.11328125 C-459.72780402 168.02341945 -453.53793083 158.1425955 -446.875 148.5 C-446.18736572 147.50154053 -446.18736572 147.50154053 -445.48583984 146.48291016 C-432.41504475 127.5645377 -418.33848721 109.72621945 -402.87109375 92.71484375 C-401.0856027 90.73368245 -399.35246808 88.71907004 -397.625 86.6875 C-389.95304502 77.91447741 -381.62093771 69.83733603 -372.48046875 62.609375 C-369.87923895 60.50343183 -367.44539021 58.28393933 -365 56 C-345.52014569 38.31352911 -322.9748633 31.06116693 -296.8359375 31.1875 C-295.02976456 31.19269653 -295.02976456 31.19269653 -293.18710327 31.19799805 C-281.06506561 31.34037543 -269.13830896 32.60788905 -257.11474609 34.06622314 C-227.36073632 37.6367646 -199.44057898 39.66178115 -169.875 33.5 C-168.83794922 33.29052734 -167.80089844 33.08105469 -166.73242188 32.86523438 C-148.71668771 29.1570778 -131.10848542 24.06444453 -113.4375 19 C-94.3545455 13.53621321 -75.3863105 8.22025574 -55.875 4.5 C-54.27736816 4.17418945 -54.27736816 4.17418945 -52.64746094 3.84179688 C-35.16910013 0.37264726 -17.76452422 0.08983812 0 0 Z " fill="#F4CBA9" transform="translate(789.875,-0.5)"/>
<path d="M0 0 C0.66 0 1.32 0 2 0 C2 0.66 2 1.32 2 2 C2.58378418 2.27295898 3.16756836 2.54591797 3.76904297 2.82714844 C5.9577202 3.9777728 7.75512089 5.2383369 9.6953125 6.765625 C10.75492188 7.59513672 10.75492188 7.59513672 11.8359375 8.44140625 C12.59132813 9.03824219 13.34671875 9.63507813 14.125 10.25 C15.75253232 11.5261333 17.38013853 12.80217238 19.0078125 14.078125 C19.83829102 14.73103516 20.66876953 15.38394531 21.52441406 16.05664062 C25.33914346 19.05124082 29.16985221 22.02516476 33 25 C34.49487056 26.16265898 35.98966192 27.32541981 37.484375 28.48828125 C40.53572258 30.86162523 43.58789658 33.23390119 46.640625 35.60546875 C53.43929458 40.88821876 60.23458264 46.17470197 67 51.5 C78.16793595 60.28791064 89.38003443 69.01724522 100.6875 77.625 C106.736267 82.23142767 112.70183474 86.92914349 118.62451172 91.69628906 C122.99964859 95.21357872 127.42010844 98.66139361 131.87817383 102.07324219 C141.97879841 109.80416949 152.00484323 117.63330617 162 125.5 C168.76994082 130.82711811 175.55727965 136.13143113 182.37109375 141.40234375 C185.53027705 143.84801166 188.66387946 146.32257305 191.78515625 148.81640625 C193.31499499 150.02357587 194.84493905 151.23061204 196.375 152.4375 C197.08245361 153.01161621 197.78990723 153.58573242 198.51879883 154.17724609 C199.51109497 154.95382568 199.51109497 154.95382568 200.5234375 155.74609375 C201.10013184 156.20685303 201.67682617 156.6676123 202.27099609 157.14233398 C203.97778487 158.17881181 203.97778487 158.17881181 205.98632812 157.80761719 C208.22746436 156.90877157 209.80598145 155.83527733 211.6953125 154.33203125 C212.40204102 153.77555908 213.10876953 153.21908691 213.83691406 152.64575195 C214.59198242 152.04077881 215.34705078 151.43580566 216.125 150.8125 C217.7472448 149.53105877 219.36964504 148.24981431 220.9921875 146.96875 C221.82202148 146.31003906 222.65185547 145.65132812 223.50683594 144.97265625 C227.40018853 141.89213442 231.32619452 138.85406221 235.25 135.8125 C240.5117745 131.72320451 245.76368909 127.62184637 251 123.5 C258.53683409 117.56725981 266.11097871 111.68278082 273.68554688 105.79833984 C277.45815634 102.86700637 281.22900355 99.93340802 285 97 C286.49999123 95.83332206 287.99999124 94.6666554 289.5 93.5 C290.2425 92.9225 290.985 92.345 291.75 91.75 C316.49999999 72.5 316.49999999 72.5 318.75097656 70.74926758 C320.24775643 69.58508741 321.74450134 68.4208623 323.24121094 67.2565918 C327.04019058 64.30150827 330.83981465 61.34725986 334.640625 58.39453125 C341.43929352 53.11178206 348.23468481 47.82542668 355 42.5 C364.89482049 34.71113288 374.84852344 26.99763692 384.796875 19.27734375 C385.5794165 18.66938965 386.36195801 18.06143555 387.16821289 17.43505859 C388.7050141 16.24211082 390.24323138 15.05098471 391.78295898 13.86181641 C394.96399479 11.39855459 398.12231296 8.929115 401.17578125 6.30859375 C402.04589844 5.56738281 402.91601562 4.82617188 403.8125 4.0625 C404.52019531 3.43472656 405.22789062 2.80695313 405.95703125 2.16015625 C408 1 408 1 410.33203125 0.8984375 C414.37078701 2.56597648 416.89170126 5.43359558 419.875 8.5625 C420.75478516 9.45678711 420.75478516 9.45678711 421.65234375 10.36914062 C424.64829961 13.44081844 427.5256419 16.58430627 430.3203125 19.83984375 C434.62859773 24.81117372 439.31594193 29.38585325 444 34 C449.27054566 39.1918808 454.41429857 44.39082714 459.23046875 50.0078125 C462.63988268 53.84622553 466.34063314 57.40203192 470 61 C474.95078156 65.86771476 479.73407634 70.7728756 484.25830078 76.04003906 C487.95414137 80.19902536 492.01586984 84.0131378 496.00976562 87.8828125 C496.65494141 88.51703125 497.30011719 89.15125 497.96484375 89.8046875 C498.5487085 90.37171387 499.13257324 90.93874023 499.73413086 91.52294922 C501 93 501 93 501 95 C501.99 95.33 502.98 95.66 504 96 C505.71875 97.7421875 505.71875 97.7421875 507.5 99.875 C508.66091504 101.25485955 509.82733402 102.63011292 511 104 C511.63682315 104.79290562 511.63682315 104.79290562 512.28651142 105.60182953 C514.63028195 107.51429676 516.13031044 107.37622524 519.13456726 107.37854004 C520.19784744 107.38674271 521.26112762 107.39494537 522.35662842 107.40339661 C524.10728607 107.39417427 524.10728607 107.39417427 525.89331055 107.38476562 C527.73808739 107.39282478 527.73808739 107.39282478 529.62013245 107.40104675 C532.30000635 107.41085104 534.97926566 107.41525004 537.65909386 107.41069031 C541.92125721 107.40386016 546.18315264 107.41979349 550.44526672 107.43908691 C559.52599652 107.47698356 568.60670338 107.48969474 577.6875 107.5 C587.4216038 107.51111151 597.15558241 107.52705287 606.88960296 107.57071257 C610.41936309 107.58584707 613.94891179 107.59507957 617.47870445 107.58930969 C634.5508655 107.56292044 651.12253946 108.34906614 668 111 C668.72234927 111.11204647 669.44469854 111.22409294 670.18893719 111.33953476 C738.37204599 122.04670526 807.1501396 159.39326507 849 215 C849.47469727 215.62003906 849.94939453 216.24007813 850.43847656 216.87890625 C859.41005484 228.64747315 867.05116542 240.94044645 874 254 C874.37995117 254.70914551 874.75990234 255.41829102 875.15136719 256.14892578 C888.46668465 281.4234846 895.21291739 309.61578084 897.421875 337.921875 C897.54811714 339.49010892 897.67464148 341.05832014 897.80142212 342.62651062 C899.35421115 361.98703055 900.75267164 381.35979965 902.15220642 400.73187256 C902.45550542 404.92567038 902.76032094 409.11935754 903.06505585 413.31305122 C905.15534592 442.08673703 907.20177401 470.86338921 909.21468163 499.64258289 C910.32310379 515.48747358 911.45249511 531.33008041 912.66607666 547.16729736 C913.57569065 559.05365401 914.42436499 570.94403513 915.2578125 582.8359375 C915.31370796 583.63296333 915.36960342 584.42998917 915.42719269 585.2511673 C915.99553955 593.35728237 916.56212955 601.46351612 917.12434578 609.57005882 C917.33622761 612.62142786 917.54927552 615.67271483 917.76253891 618.72398758 C917.86211223 620.15292144 917.96114049 621.5818934 918.05957413 623.01090622 C918.67057098 632.02152346 918.67057098 632.02152346 919.56787109 641.00634766 C920.14257914 647.64763489 920 654.33389278 920 661 C448.76 661 -22.48 661 -508 661 C-508 647.09917871 -507.82362181 633.61036156 -506.69921875 619.8203125 C-506.56151405 618.04972025 -506.42471397 616.27905746 -506.28874207 614.5083313 C-506.00572533 610.83325859 -505.71872415 607.15853096 -505.4286499 603.48400879 C-504.80710706 595.57771109 -504.23033896 587.66814367 -503.65087318 579.75867271 C-503.32052463 575.25701094 -502.98681076 570.75559841 -502.65356445 566.25415039 C-499.75515338 527.06061352 -496.89528885 487.86440119 -494.0720253 448.66537857 C-493.81313927 445.07137465 -493.55409438 441.47738221 -493.29501343 437.88339233 C-491.03724225 406.57611504 -491.03724225 406.57611504 -488.82295036 375.26574135 C-488.67905711 373.21084409 -488.53474622 371.15597663 -488.39027405 369.10112 C-487.9859694 363.34838568 -487.58421847 357.59552161 -487.19067383 351.84204102 C-485.0058447 320.30844327 -485.0058447 320.30844327 -481.25 305.5 C-480.98687012 304.44031006 -480.72374023 303.38062012 -480.45263672 302.28881836 C-471.15671201 265.66154624 -453.39182135 232.07355406 -428 204 C-427.49694336 203.44199707 -426.99388672 202.88399414 -426.47558594 202.30908203 C-423.02657067 198.49808033 -419.52861522 194.73737889 -416 191 C-415.36449219 190.32195312 -414.72898437 189.64390625 -414.07421875 188.9453125 C-409.99544534 184.72052095 -405.51771923 181.05631543 -400.94140625 177.3828125 C-398.98894799 175.80113981 -397.05866854 174.19166873 -395.15234375 172.5546875 C-387.50267602 165.98606299 -379.5162597 160.37620824 -371 155 C-370.26813477 154.53335937 -369.53626953 154.06671875 -368.78222656 153.5859375 C-336.50070055 133.13140005 -301.01926069 119.53196288 -263.5625 112.1875 C-262.57008301 111.9925293 -261.57766602 111.79755859 -260.55517578 111.59667969 C-241.52552082 108.07117263 -222.79319859 107.72169572 -203.51062346 107.79721212 C-199.71905474 107.80988134 -195.92748139 107.81090253 -192.13589478 107.81326294 C-184.98598046 107.81943088 -177.83612874 107.83577684 -170.68624175 107.85596192 C-162.53363038 107.87846859 -154.38101572 107.88935113 -146.22838092 107.89935279 C-129.48555089 107.92014836 -112.74278348 107.95523111 -96 108 C-95.70268478 107.37893372 -95.40536957 106.75786743 -95.0990448 106.11798096 C-93.85874559 103.72778711 -92.41486519 102.11186965 -90.55078125 100.171875 C-89.52500977 99.09486328 -89.52500977 99.09486328 -88.47851562 97.99609375 C-87.40633789 96.88427734 -87.40633789 96.88427734 -86.3125 95.75 C-81.06810941 90.27716978 -75.96145356 84.73050641 -71 79 C-69.54609193 77.37103946 -68.08842268 75.74541821 -66.625 74.125 C-65.86445313 73.28195312 -65.10390625 72.43890625 -64.3203125 71.5703125 C-63.55460937 70.72210937 -62.78890625 69.87390625 -62 69 C-60.49971321 67.33359149 -58.99971128 65.66692647 -57.5 64 C-55.2282871 61.47499507 -52.95564586 58.95086696 -50.6796875 56.4296875 C-47.30087292 52.68435744 -43.93104035 48.93481793 -40.625 45.125 C-37.17148439 41.15747276 -33.6099606 37.2915236 -30.04736328 33.42236328 C-27.49474237 30.64541318 -24.97031795 27.85036687 -22.5 25 C-19.10036141 21.07734009 -15.58494558 17.26384828 -12.06884766 13.44604492 C-8.736051 9.82074526 -5.46460348 6.14929062 -2.2421875 2.42578125 C-1.51888012 1.59556994 -0.7785963 0.7785963 0 0 Z " fill="#D4D4D5" transform="translate(508,1259)"/>
<path d="M0 0 C1.12085999 -0.01062469 2.24171997 -0.02124939 3.39654541 -0.03219604 C64.47622469 -0.47549917 107.60780755 31.47664823 156.125 64.5 C156.99502655 65.09127686 157.8650531 65.68255371 158.76144409 66.29174805 C161.31624232 68.02850479 163.86932044 69.76776033 166.421875 71.5078125 C167.55258171 72.276129 167.55258171 72.276129 168.70613098 73.05996704 C175.75762614 77.87600928 182.57536681 82.98370095 189.36279297 88.16259766 C191.9318506 90.11234796 194.53114953 92.02091331 197.125 93.9375 C212.96214571 105.82073145 228.14117495 118.66206527 242.64550781 132.13378906 C244.60770693 133.94574719 246.59195699 135.73314274 248.57324219 137.52416992 C257.58440116 145.69773428 266.44884511 154.13836701 274.328125 163.421875 C276.19477008 165.58069061 278.12360383 167.67518651 280.06542969 169.76635742 C285.67807892 175.81552481 290.95661741 182.06436975 296.125 188.5 C297.14479469 189.75214871 298.16569839 191.00339473 299.1875 192.25390625 C304.43802261 198.68399618 309.64849288 205.13840459 314.75 211.6875 C318.78351626 216.86214906 322.95329824 221.89879599 327.21142578 226.88964844 C331.2922274 231.67665829 335.23070559 236.5608949 339.125 241.5 C339.97505539 242.56787157 340.82532897 243.63556949 341.67578125 244.703125 C373.6805893 284.99571107 392.84505572 326.63979445 404.875 376.5625 C405.39451627 378.70615942 405.91413074 380.84979505 406.43383789 382.9934082 C407.75197217 388.44079752 409.06083471 393.89037082 410.36676025 399.34069824 C411.09727659 402.38448692 411.83189101 405.42725495 412.56787109 408.46972656 C417.93946561 430.70528246 422.94141757 452.82933383 426.125 475.5 C426.28581055 476.57362793 426.44662109 477.64725586 426.61230469 478.75341797 C428.76492514 493.34907234 429.42467312 507.83161826 429.5 522.5625 C429.50794586 523.37331024 429.51589172 524.18412048 429.52407837 525.01950073 C429.74372304 554.10008596 422.86566752 579.32478643 402.1171875 600.65625 C395.9503068 606.90621135 389.74685649 613.03887866 383.09863281 618.77807617 C379.74010834 621.70826829 376.49785004 624.76080724 373.25 627.8125 C372.60675781 628.41255859 371.96351563 629.01261719 371.30078125 629.63085938 C369.95958777 630.88872427 368.62975304 632.15879167 367.31054688 633.43969727 C365.75214653 634.90879249 364.13639324 636.31801539 362.48632812 637.68334961 C355.38942741 643.90213091 353.49076924 649.07598761 352.57824707 658.38433838 C352.29709359 661.22449511 351.91521991 664.048655 351.53875732 666.87750244 C351.34626404 668.32626766 351.15815148 669.77562168 350.97442627 671.2255249 C346.41283745 706.82898363 334.18589491 743.00527175 319.125 775.5 C318.465 775.5 317.805 775.5 317.125 775.5 C316.76148438 774.78714844 316.39796875 774.07429687 316.0234375 773.33984375 C309.14696291 760.23927805 299.29841067 750.38452901 285.08984375 745.20703125 C278.22633166 743.57027804 271.14317428 743.08102532 264.125 742.5 C264.09982674 738.48389666 264.08192245 734.46782537 264.07006836 730.45166016 C264.06270992 728.43260071 264.04998838 726.41356303 264.03710938 724.39453125 C264.0187804 716.9529674 264.27563584 709.60439086 264.86889648 702.18310547 C265.36788974 695.00692594 265.49990465 687.81487909 265.6875 680.625 C265.73084074 679.05077354 265.77445903 677.4765547 265.81835938 675.90234375 C265.9237599 672.10164234 266.02544912 668.30085894 266.125 664.5 C264.98289062 664.52320313 263.84078125 664.54640625 262.6640625 664.5703125 C228.89569339 665.04562358 194.39040876 660.68592291 162.125 650.5 C160.92359375 650.12875 159.7221875 649.7575 158.484375 649.375 C152.24792556 647.36930772 146.15343678 645.06068087 140.125 642.5 C139.17778076 642.0980542 139.17778076 642.0980542 138.21142578 641.68798828 C121.37500668 634.4968266 105.66941524 626.10091588 90.26953125 616.19921875 C89.54975098 615.73692871 88.8299707 615.27463867 88.08837891 614.79833984 C86.42201474 613.6964094 84.80433835 612.52140559 83.19921875 611.33203125 C75.22298306 606.5787218 67.22992767 606.06512837 58.125 606.25 C57.10921875 606.25515625 56.0934375 606.2603125 55.046875 606.265625 C49.49322347 606.32258553 44.04749921 606.66074228 38.52880859 607.26416016 C-1.45892497 611.187393 -39.25645785 595.39687891 -69.89306641 570.52807617 C-82.33975067 560.14449318 -93.28896537 548.55591988 -102.875 535.5 C-103.62007812 534.4996875 -104.36515625 533.499375 -105.1328125 532.46875 C-120.0106015 511.77849146 -130.98051957 488.53587175 -138.9375 464.375 C-139.25847656 463.40304687 -139.57945312 462.43109375 -139.91015625 461.4296875 C-140.22855469 460.46289062 -140.54695313 459.49609375 -140.875 458.5 C-141.19855469 457.53578125 -141.52210938 456.5715625 -141.85546875 455.578125 C-145.60532541 444.25671868 -148.55867688 432.90929469 -151.0625 421.25 C-151.31225586 420.09097168 -151.56201172 418.93194336 -151.81933594 417.73779297 C-153.23908496 410.98680014 -154.42628847 404.23579127 -155.43481445 397.41162109 C-155.99098421 393.73281883 -156.67953871 390.09245143 -157.375 386.4375 C-158.52228036 380.23949156 -159.22293945 374.09093912 -159.75 367.8125 C-161.32893767 350.43911411 -165.01353271 334.60785995 -173.875 319.5 C-174.43058594 318.50871094 -174.98617188 317.51742188 -175.55859375 316.49609375 C-183.35711401 303.34894808 -194.76948278 291.73099032 -208.875 285.5 C-211.8080447 284.79672203 -211.8080447 284.79672203 -214.875 284.5 C-216.00292969 284.36335938 -217.13085938 284.22671875 -218.29296875 284.0859375 C-235.71792042 283.11086248 -251.25836568 292.67700946 -264 303.9375 C-265.63157331 305.45127923 -267.25714194 306.97157128 -268.875 308.5 C-269.46925781 309.04140625 -270.06351563 309.5828125 -270.67578125 310.140625 C-276.80806707 315.9362937 -281.82026121 322.77374719 -286.875 329.5 C-287.35098633 330.13164062 -287.82697266 330.76328125 -288.31738281 331.4140625 C-300.61433183 347.88780573 -311.042982 365.81245548 -319.859375 384.37451172 C-321.03407276 386.83290563 -322.23582657 389.27733918 -323.4375 391.72265625 C-329.42010544 403.88567717 -329.42010544 403.88567717 -333.9609375 416.63671875 C-334.76180807 419.14542869 -335.69261022 421.49112895 -336.70703125 423.91796875 C-339.11439633 429.8663871 -340.87605348 435.96383684 -342.62316895 442.13342285 C-343.20014278 444.16961755 -343.78425858 446.20364975 -344.37011719 448.23730469 C-346.21373726 454.64469551 -348.03334221 461.05860586 -349.83984375 467.4765625 C-350.29460083 469.07443604 -350.29460083 469.07443604 -350.75854492 470.70458984 C-351.31445708 472.65850596 -351.86342195 474.61441977 -352.40356445 476.57275391 C-354.29584535 483.20505713 -356.90074226 489.2856106 -359.875 495.5 C-360.71131061 497.300608 -361.54724781 499.10138948 -362.3828125 500.90234375 C-371.23932134 519.71757966 -381.01141346 537.72805268 -392.35449219 555.16210938 C-393.3729297 556.72803064 -394.38656638 558.29708416 -395.39550781 559.86914062 C-401.92174481 570.03412198 -408.74759486 579.55335242 -416.875 588.5 C-417.46410156 589.16 -418.05320312 589.82 -418.66015625 590.5 C-422.23443186 594.29382571 -426.26908101 597.49032519 -430.375 600.6875 C-430.90915527 601.10410889 -431.44331055 601.52071777 -431.99365234 601.94995117 C-434.76383808 604.05865679 -437.35558652 605.7214405 -440.52807617 607.1628418 C-442.39266991 608.14917356 -442.39266991 608.14917356 -443.875 609.5 C-444.5914249 612.42913627 -444.79039825 614.29725312 -444.70703125 617.2265625 C-444.7138089 617.99317703 -444.72058655 618.75979156 -444.72756958 619.54963684 C-444.73867057 621.2062256 -444.7341679 622.86297673 -444.71578979 624.51950073 C-444.67724722 628.06928425 -444.71491705 631.61707548 -444.74848938 635.16679382 C-444.76518799 636.98732997 -444.77808739 638.80790473 -444.78727722 640.62849426 C-444.836595 648.75796025 -445.2647327 656.82855205 -445.8125 664.9375 C-446.88346789 681.31600894 -447.54688647 697.70644273 -448.17749023 714.10717773 C-448.91756571 733.0715998 -448.91756571 733.0715998 -449.875 742.5 C-450.73480469 742.52578125 -451.59460938 742.5515625 -452.48046875 742.578125 C-469.29039025 743.38470793 -482.45676149 748.37001036 -494.21875 760.60546875 C-495.93314672 762.50313066 -495.93314672 762.50313066 -497.46875 764.73828125 C-497.9328125 765.31964844 -498.396875 765.90101563 -498.875 766.5 C-499.535 766.5 -500.195 766.5 -500.875 766.5 C-518.10719548 722.12799769 -532.52195528 675.46543534 -533.875 627.5 C-534.555625 627.36464844 -535.23625 627.22929688 -535.9375 627.08984375 C-555.33268346 622.7826687 -570.72895256 613.15895255 -584.875 599.5 C-585.89787109 598.55447266 -585.89787109 598.55447266 -586.94140625 597.58984375 C-608.17184515 577.49929418 -614.67682619 547.65566185 -615.75195312 519.62792969 C-617.12879643 465.05904008 -601.98084999 425.97325588 -571.69668579 381.17149353 C-548.92436383 347.45810247 -531.53874357 311.32045416 -514.89459229 274.32055664 C-501.37587337 244.27146036 -487.59094742 214.40876813 -470.49951172 186.18896484 C-468.87928604 183.50709445 -467.28243092 180.81256065 -465.69140625 178.11328125 C-459.72780402 168.02341945 -453.53793083 158.1425955 -446.875 148.5 C-446.41657715 147.83436035 -445.9581543 147.1687207 -445.48583984 146.48291016 C-432.41504475 127.5645377 -418.33848721 109.72621945 -402.87109375 92.71484375 C-401.0856027 90.73368245 -399.35246808 88.71907004 -397.625 86.6875 C-389.95304502 77.91447741 -381.62093771 69.83733603 -372.48046875 62.609375 C-369.87923895 60.50343183 -367.44539021 58.28393933 -365 56 C-345.52014569 38.31352911 -322.9748633 31.06116693 -296.8359375 31.1875 C-295.02976456 31.19269653 -295.02976456 31.19269653 -293.18710327 31.19799805 C-281.06506561 31.34037543 -269.13830896 32.60788905 -257.11474609 34.06622314 C-227.36073632 37.6367646 -199.44057898 39.66178115 -169.875 33.5 C-168.31942383 33.18579102 -168.31942383 33.18579102 -166.73242188 32.86523438 C-148.71668771 29.1570778 -131.10848542 24.06444453 -113.4375 19 C-94.3545455 13.53621321 -75.3863105 8.22025574 -55.875 4.5 C-54.27736816 4.17418945 -54.27736816 4.17418945 -52.64746094 3.84179688 C-35.16910013 0.37264726 -17.76452422 0.08983812 0 0 Z " fill="#524740" transform="translate(789.875,-0.5)"/>
<path d="M0 0 C3.79156871 0.01266922 7.58314206 0.01369041 11.37472868 0.01605082 C18.52464299 0.02221875 25.67449472 0.03856472 32.82438171 0.05874979 C40.97699308 0.08125647 49.12960774 0.09213901 57.28224254 0.10214067 C74.02507257 0.12293623 90.76783997 0.15801899 107.51062346 0.20278788 C107.00455061 0.81482569 106.49847776 1.4268635 105.97706938 2.05744791 C105.49314222 2.7654101 105.00921507 3.47337229 104.51062346 4.20278788 C105.53294491 8.63098789 108.39361144 12.27723171 110.92077971 15.99575663 C111.35946379 16.64956308 111.79814787 17.30336954 112.25012541 17.97698832 C113.1940383 19.38290102 114.13999913 20.78744052 115.08780241 22.19073343 C117.62375251 25.94612378 120.1440387 29.71201771 122.66687346 33.47622538 C123.17356062 34.23129877 123.68024778 34.98637217 124.2022891 35.76432657 C128.37343795 41.98416081 132.48776362 48.23869907 136.57312346 54.51528788 C144.24691663 66.28807884 151.96590855 78.03079252 159.69812346 89.76528788 C160.32417479 90.71543772 160.95022612 91.66558756 161.5952487 92.64452982 C169.78037003 105.06357548 177.9976147 117.46043989 186.26062346 129.82778788 C193.08197483 140.03743738 199.8537246 150.27640166 206.55969572 160.56240702 C222.1769681 184.50501684 237.92870232 208.36189109 253.7593112 232.163939 C254.71218388 233.59697689 255.6643222 235.03050338 256.61569548 236.46453714 C257.91556695 238.42313059 259.21845039 240.37968188 260.52234221 242.33560038 C261.24897062 243.42759745 261.97559904 244.51959452 262.7242465 245.64468241 C264.41281259 248.22157452 264.41281259 248.22157452 266.51062346 250.20278788 C267.16546721 249.54270731 267.82031096 248.88262674 268.49499846 248.20254374 C270.96052472 245.71982321 273.4284018 243.23948596 275.89783049 240.7606492 C276.95963206 239.69386491 278.02052903 238.62617934 279.08044767 237.5575242 C289.02627702 227.53186526 289.02627702 227.53186526 293.32312346 223.89419413 C300.10928408 218.09738982 306.23660041 211.54055281 312.51062346 205.20278788 C327.27207859 190.2913615 327.27207859 190.2913615 333.31921721 185.17153788 C339.30417131 179.79468071 344.85222026 173.91867848 350.51062346 168.20278788 C365.37207882 153.1903453 365.37207882 153.1903453 371.45349455 148.04604959 C374.30287489 145.49290201 376.97196656 142.77643933 379.65515471 140.05044413 C380.19695372 139.50076975 380.73875273 138.95109537 381.29696989 138.38476419 C383.55057571 136.09455082 385.8010565 133.80143871 388.04260588 131.49941874 C389.6984795 129.80142056 391.36349378 128.11284578 393.03015471 126.42544413 C393.78955099 125.63811647 393.78955099 125.63811647 394.56428862 124.83488321 C395.82385236 123.56614947 397.16221286 122.37665968 398.51062346 121.20278788 C399.50062346 121.20278788 400.49062346 121.20278788 401.51062346 121.20278788 C401.75812346 120.64591288 402.00562346 120.08903788 402.26062346 119.51528788 C403.7266836 116.8030766 405.54051816 114.56691423 407.51062346 112.20278788 C411.76429075 112.68547353 414.14066412 115.3579357 417.07312346 118.20278788 C420.96447067 121.87924247 424.89551316 125.40999455 429.07312346 128.76528788 C433.81263167 132.580014 438.28961343 136.61848219 442.76452971 140.73794413 C445.42937512 143.12986085 448.15894171 145.39533671 450.94812346 147.64028788 C456.07809473 151.78090755 460.91527146 156.17546108 465.74890471 160.65200663 C470.32233285 164.8761206 475.02733026 168.93711036 479.76062346 172.98013163 C480.96900293 174.01262971 482.17733495 175.04518333 483.38562346 176.07778788 C483.99430265 176.59760233 484.60298185 177.11741678 485.23010588 177.65298319 C488.76724403 180.68197444 492.25471877 183.7544281 495.69812346 186.89028788 C499.01145425 189.90093266 502.40004275 192.76843966 505.88562346 195.57778788 C510.49292467 199.30533568 514.8810703 203.20839885 519.21863127 207.24160624 C522.71951658 210.49646159 526.30000267 213.62609436 529.98718596 216.66763163 C532.80554533 219.50767069 533.74192225 222.57793734 534.25671721 226.47622538 C534.37015471 227.29381327 534.48359221 228.11140116 534.60046721 228.95376444 C534.77255705 230.25265604 534.77255705 230.25265604 534.94812346 231.57778788 C535.95545368 238.72931852 537.18271113 245.75305468 538.76062346 252.80435038 C541.12733389 263.52850702 542.90779262 274.32779087 544.42077971 285.20132303 C545.03327729 289.49141622 545.85560387 293.59044376 546.95959806 297.78677225 C548.46147089 304.37185574 549.30336032 311.12002239 550.33337736 317.79409647 C550.64993162 319.83704833 550.97082174 321.87928874 551.29187346 323.92153788 C551.57127775 325.73041483 551.57127775 325.73041483 551.85632658 327.57583475 C552.3227783 330.16150891 552.84694542 332.62569242 553.50134611 335.16079569 C554.5227731 339.12370785 555.2373681 343.11581592 555.87781096 347.15591288 C556.12409025 348.66796669 556.37043037 350.1800106 556.61682463 351.69204569 C556.80515364 352.85927164 556.80515364 352.85927164 556.99728727 354.05007792 C559.11211775 367.13493708 561.3751097 380.16077145 564.08581877 393.13686991 C567.09351742 407.76396533 569.59165394 422.51131075 572.01062346 437.24575663 C572.19605963 438.37363848 572.19605963 438.37363848 572.38524199 439.52430582 C572.88743081 442.58240939 573.3888885 445.6406193 573.88562346 448.69961405 C575.33255561 457.59692798 576.91069332 466.42086759 578.85437346 475.22500467 C580.24121493 481.51790104 581.35898329 487.86345636 582.51062346 494.20278788 C582.74652189 495.4944285 582.98242033 496.78606913 583.22546721 498.11685038 C584.96742448 507.77098586 586.50079675 517.45318594 588.0211215 527.14443827 C589.12377412 534.06786028 590.40212314 540.8971961 591.99499846 547.72622538 C592.51062346 550.20278788 592.51062346 550.20278788 592.51062346 553.20278788 C296.50062346 553.20278788 0.49062346 553.20278788 -304.48937654 553.20278788 C-304.48937654 539.30196659 -304.31299836 525.81314943 -303.18859529 512.02310038 C-303.05089059 510.25250813 -302.91409051 508.48184533 -302.77811861 506.71111917 C-302.49510187 503.03604647 -302.2081007 499.36131884 -301.91802645 495.68679667 C-301.2964836 487.78049897 -300.71971551 479.87093155 -300.14024973 471.96146059 C-299.80990117 467.45979881 -299.4761873 462.95838628 -299.142941 458.45693827 C-296.24452992 419.2634014 -293.3846654 380.06718907 -290.56140184 340.86816645 C-290.30251581 337.27416253 -290.04347093 333.68017008 -289.78438997 330.08618021 C-287.52661879 298.77890291 -287.52661879 298.77890291 -285.31232691 267.46852922 C-285.16843365 265.41363196 -285.02412276 263.3587645 -284.87965059 261.30390787 C-284.47534594 255.55117356 -284.07359502 249.79830949 -283.68005037 244.04482889 C-281.49522124 212.51123115 -281.49522124 212.51123115 -277.73937654 197.70278788 C-277.47624666 196.64309793 -277.21311678 195.58340799 -276.94201326 194.49160624 C-267.64608856 157.86433411 -249.88119789 124.27634193 -224.48937654 96.20278788 C-223.9863199 95.64478495 -223.48326326 95.08678202 -222.96496248 94.51186991 C-219.51594721 90.7008682 -216.01799176 86.94016676 -212.48937654 83.20278788 C-211.85386873 82.524741 -211.21836092 81.84669413 -210.56359529 81.14810038 C-206.48482188 76.92330882 -202.00709577 73.25910331 -197.43078279 69.58560038 C-195.47832454 68.00392769 -193.54804508 66.39445661 -191.64172029 64.75747538 C-183.99205257 58.18885087 -176.00563624 52.57899612 -167.48937654 47.20278788 C-166.39157869 46.50282694 -166.39157869 46.50282694 -165.27160311 45.78872538 C-132.99007709 25.33418793 -97.50863723 11.73475076 -60.05187654 4.39028788 C-59.05945955 4.19531717 -58.06704256 4.00034647 -57.04455233 3.79946756 C-38.01489737 0.2739605 -19.28257513 -0.0755164 0 0 Z " fill="#D4D4D5" transform="translate(304.4893765449524,1366.7972121238708)"/>
<path d="M0 0 C0.66 0 1.32 0 2 0 C2 0.66 2 1.32 2 2 C2.58378418 2.27295898 3.16756836 2.54591797 3.76904297 2.82714844 C5.9577202 3.9777728 7.75512089 5.2383369 9.6953125 6.765625 C10.40171875 7.31863281 11.108125 7.87164063 11.8359375 8.44140625 C12.59132813 9.03824219 13.34671875 9.63507813 14.125 10.25 C15.75253232 11.5261333 17.38013853 12.80217238 19.0078125 14.078125 C19.83829102 14.73103516 20.66876953 15.38394531 21.52441406 16.05664062 C25.33914346 19.05124082 29.16985221 22.02516476 33 25 C34.49487056 26.16265898 35.98966192 27.32541981 37.484375 28.48828125 C40.53572258 30.86162523 43.58789658 33.23390119 46.640625 35.60546875 C53.43929458 40.88821876 60.23458264 46.17470197 67 51.5 C78.16793595 60.28791064 89.38003443 69.01724522 100.6875 77.625 C106.736267 82.23142767 112.70183474 86.92914349 118.62451172 91.69628906 C122.99964859 95.21357872 127.42010844 98.66139361 131.87817383 102.07324219 C141.97879841 109.80416949 152.00484323 117.63330617 162 125.5 C168.76994082 130.82711811 175.55727965 136.13143113 182.37109375 141.40234375 C185.53027705 143.84801166 188.66387946 146.32257305 191.78515625 148.81640625 C193.31499499 150.02357587 194.84493905 151.23061204 196.375 152.4375 C197.08245361 153.01161621 197.78990723 153.58573242 198.51879883 154.17724609 C199.18032959 154.69496582 199.84186035 155.21268555 200.5234375 155.74609375 C201.10013184 156.20685303 201.67682617 156.6676123 202.27099609 157.14233398 C203.97778487 158.17881181 203.97778487 158.17881181 205.98632812 157.80761719 C208.22746436 156.90877157 209.80598145 155.83527733 211.6953125 154.33203125 C212.40204102 153.77555908 213.10876953 153.21908691 213.83691406 152.64575195 C214.9695166 151.73829224 214.9695166 151.73829224 216.125 150.8125 C217.7472448 149.53105877 219.36964504 148.24981431 220.9921875 146.96875 C221.82202148 146.31003906 222.65185547 145.65132812 223.50683594 144.97265625 C227.40018853 141.89213442 231.32619452 138.85406221 235.25 135.8125 C240.5117745 131.72320451 245.76368909 127.62184637 251 123.5 C258.53683409 117.56725981 266.11097871 111.68278082 273.68554688 105.79833984 C277.45815634 102.86700637 281.22900355 99.93340802 285 97 C286.49999123 95.83332206 287.99999124 94.6666554 289.5 93.5 C290.61375 92.63375 290.61375 92.63375 291.75 91.75 C316.5 72.5 316.5 72.5 318.75097656 70.74926758 C320.24775643 69.58508741 321.74450134 68.4208623 323.24121094 67.2565918 C327.04019058 64.30150827 330.83981465 61.34725986 334.640625 58.39453125 C341.43929352 53.11178206 348.23468481 47.82542668 355 42.5 C364.89482049 34.71113288 374.84852344 26.99763692 384.796875 19.27734375 C385.5794165 18.66938965 386.36195801 18.06143555 387.16821289 17.43505859 C388.7050141 16.24211082 390.24323138 15.05098471 391.78295898 13.86181641 C394.96399479 11.39855459 398.12231296 8.929115 401.17578125 6.30859375 C402.04589844 5.56738281 402.91601562 4.82617188 403.8125 4.0625 C404.52019531 3.43472656 405.22789062 2.80695313 405.95703125 2.16015625 C408 1 408 1 410.33203125 0.8984375 C414.37078701 2.56597648 416.89170126 5.43359558 419.875 8.5625 C420.75478516 9.45678711 420.75478516 9.45678711 421.65234375 10.36914062 C424.64829961 13.44081844 427.5256419 16.58430627 430.3203125 19.83984375 C434.62859773 24.81117372 439.31594193 29.38585325 444 34 C449.27054566 39.1918808 454.41429857 44.39082714 459.23046875 50.0078125 C462.63988268 53.84622553 466.34063314 57.40203192 470 61 C474.95078156 65.86771476 479.73407634 70.7728756 484.25830078 76.04003906 C487.95414137 80.19902536 492.01586984 84.0131378 496.00976562 87.8828125 C496.65494141 88.51703125 497.30011719 89.15125 497.96484375 89.8046875 C498.5487085 90.37171387 499.13257324 90.93874023 499.73413086 91.52294922 C501 93 501 93 501 95 C501.99 95.33 502.98 95.66 504 96 C505.61328125 97.6015625 505.61328125 97.6015625 507.3125 99.625 C507.91835938 100.33914063 508.52421875 101.05328125 509.1484375 101.7890625 C509.75945313 102.51867188 510.37046875 103.24828125 511 104 C512.14453013 105.33445216 513.29025017 106.66788527 514.4375 108 C515.283125 108.99 516.12875 109.98 517 111 C515.67108972 114.47549215 514.15371762 117.72871874 512.3828125 121 C511.86477051 121.95817627 511.34672852 122.91635254 510.81298828 123.90356445 C509.97743408 125.43630005 509.97743408 125.43630005 509.125 127 C508.54347168 128.07016357 507.96194336 129.14032715 507.36279297 130.24291992 C503.21949794 137.83783705 498.97161814 145.36675528 494.65600586 152.86474609 C487.96744465 164.49995389 481.50116697 176.25945434 475 188 C467.35515075 201.79688279 459.69038556 215.58049095 451.91137695 229.30224609 C447.11147305 237.77902993 442.38049242 246.29337433 437.65625 254.8125 C433.45581759 262.3853535 429.2360587 269.94702177 425 277.5 C420.14629913 286.15543553 415.31529842 294.8231429 410.5 303.5 C405.46558414 312.5665432 400.42914345 321.63193585 395.375 330.6875 C394.80716797 331.7084375 394.23933594 332.729375 393.65429688 333.78125 C390.57716962 339.28691242 387.39327088 344.68303466 384 350 C377.87553736 345.99564793 371.92934638 341.80907054 366.0625 337.4375 C359.73770409 332.74988572 353.39104464 328.09689384 347 323.5 C339.99765923 318.46018664 333.0438639 313.35786353 326.10546875 308.23046875 C320.76142324 304.28584596 315.39089219 300.38030944 310 296.5 C302.99784758 291.45992181 296.04386744 286.35786615 289.10546875 281.23046875 C283.76142324 277.28584596 278.39089219 273.38030944 273 269.5 C266.80345505 265.03978989 260.64027995 260.53735031 254.5 256 C248.0843285 251.26123448 241.65041594 246.5491682 235.1875 241.875 C234.45273437 241.34261719 233.71796875 240.81023437 232.9609375 240.26171875 C228.22041464 236.84045086 223.48603818 233.43078633 218.4140625 230.51171875 C214.90159586 228.3121644 212.08546163 225.48537748 209.0859375 222.64453125 C207.05005856 220.69044017 207.05005856 220.69044017 204 221 C202.48685546 222.67007434 202.48685546 222.67007434 201.125 224.8125 C199.49054635 227.26418048 198.39377228 228.7798079 195.8034668 230.22827148 C192.18009606 232.51816101 189.43441273 235.33656392 186.44921875 238.390625 C185.83158157 239.01346375 185.2139444 239.63630249 184.57759094 240.27801514 C182.60938745 242.26395858 180.64800276 244.25645642 178.6875 246.25 C176.11147924 248.86276172 173.53227922 251.47232259 170.94921875 254.078125 C170.32522186 254.70771118 169.70122498 255.33729736 169.05831909 255.98596191 C166.12705468 258.9269167 163.19140766 261.80014994 160.01953125 264.484375 C153.27116302 270.19641583 147.21464668 276.72221467 141 283 C126.23854486 297.91142638 126.23854486 297.91142638 120.19140625 303.03125 C114.20645214 308.40810717 108.6584032 314.2841094 103 320 C87.86136564 335.29243761 87.86136564 335.29243761 81.8203125 340.40673828 C78.03096833 343.72343089 74.53918247 347.35844805 71 350.9375 C69.83791016 352.10635742 69.83791016 352.10635742 68.65234375 353.29882812 C66.76589243 355.1969242 64.88183755 357.09733149 63 359 C60.20370013 356.34311841 57.99392828 353.71054131 55.91015625 350.46875 C55.30598877 349.53603271 54.70182129 348.60331543 54.0793457 347.64233398 C53.41378662 346.60536377 52.74822754 345.56839355 52.0625 344.5 C50.53895021 342.14551786 49.01140179 339.79363437 47.484375 337.44140625 C47.0648909 336.79422134 46.6454068 336.14703644 46.21321106 335.48023987 C40.12880653 326.10044431 33.96667272 316.77159332 27.8125 307.4375 C27.18808014 306.48997864 26.56366028 305.54245728 25.9203186 304.56622314 C17.73357915 292.14449973 9.51474566 279.74494764 1.25 267.375 C-5.57135138 257.1653505 -12.34310114 246.92638622 -19.04907227 236.64038086 C-26.06416676 225.88564301 -33.12246075 215.15948217 -40.1875 204.4375 C-40.81355133 203.48735016 -41.43960266 202.53720032 -42.08462524 201.55825806 C-50.71356898 188.46581361 -59.38157408 175.40029018 -68.09432983 162.36349487 C-75.62628228 151.09199501 -83.07108049 139.76628448 -90.46875 128.40625 C-93.6123184 123.58155589 -96.79341292 118.78300978 -100 114 C-96.441541 106.74759539 -91.76214371 101.41068747 -86.1875 95.625 C-80.98552431 90.19345355 -75.92379781 84.68484043 -71 79 C-69.54609193 77.37103946 -68.08842268 75.74541821 -66.625 74.125 C-65.86445313 73.28195312 -65.10390625 72.43890625 -64.3203125 71.5703125 C-63.17175781 70.29800781 -63.17175781 70.29800781 -62 69 C-60.49971321 67.33359149 -58.99971128 65.66692647 -57.5 64 C-55.2282871 61.47499507 -52.95564586 58.95086696 -50.6796875 56.4296875 C-47.30087292 52.68435744 -43.93104035 48.93481793 -40.625 45.125 C-37.17148439 41.15747276 -33.6099606 37.2915236 -30.04736328 33.42236328 C-27.49474237 30.64541318 -24.97031795 27.85036687 -22.5 25 C-19.10036141 21.07734009 -15.58494558 17.26384828 -12.06884766 13.44604492 C-8.736051 9.82074526 -5.46460348 6.14929062 -2.2421875 2.42578125 C-1.51888012 1.59556994 -0.7785963 0.7785963 0 0 Z " fill="#EEEEEE" transform="translate(508,1259)"/>
<path d="M0 0 C4.25366729 0.48268565 6.63004066 3.15514782 9.5625 6 C13.45384721 9.67645459 17.3848897 13.20720667 21.5625 16.5625 C26.30200822 20.37722613 30.77898997 24.41569432 35.25390625 28.53515625 C37.91875166 30.92707297 40.64831825 33.19254884 43.4375 35.4375 C48.56747127 39.57811967 53.404648 43.9726732 58.23828125 48.44921875 C62.81170939 52.67333272 67.51670681 56.73432248 72.25 60.77734375 C73.45837948 61.80984183 74.6667115 62.84239546 75.875 63.875 C76.4836792 64.39481445 77.0923584 64.91462891 77.71948242 65.45019531 C81.25662058 68.47918656 84.74409531 71.55164023 88.1875 74.6875 C91.5008308 77.69814479 94.88941929 80.56565178 98.375 83.375 C102.98230122 87.1025478 107.37044684 91.00561098 111.70800781 95.03881836 C115.20889312 98.29367371 118.78937921 101.42330648 122.4765625 104.46484375 C125.29492187 107.30488281 126.23129879 110.37514946 126.74609375 114.2734375 C126.91625 115.49981934 126.91625 115.49981934 127.08984375 116.75097656 C127.20457031 117.6169043 127.31929687 118.48283203 127.4375 119.375 C128.44483022 126.52653064 129.67208768 133.55026681 131.25 140.6015625 C133.61671043 151.32571915 135.39716917 162.125003 136.91015625 172.99853516 C137.52265384 177.28862834 138.34498041 181.38765589 139.44897461 185.58398438 C140.95084743 192.16906787 141.79273687 198.91723451 142.82275391 205.59130859 C143.13930817 207.63426045 143.46019828 209.67650086 143.78125 211.71875 C144.0606543 213.52762695 144.0606543 213.52762695 144.34570312 215.37304688 C144.81215484 217.95872103 145.33632197 220.42290454 145.99072266 222.95800781 C147.01214965 226.92091997 147.72674465 230.91302805 148.3671875 234.953125 C148.61346679 236.46517882 148.85980691 237.97722273 149.10620117 239.48925781 C149.23175385 240.26740845 149.35730652 241.04555908 149.48666382 241.84729004 C151.60149429 254.93214921 153.86448625 267.95798357 156.57519531 280.93408203 C159.58289397 295.56117745 162.08103048 310.30852288 164.5 325.04296875 C164.62362411 325.79488998 164.74724823 326.54681122 164.87461853 327.32151794 C165.37680736 330.37962151 165.87826505 333.43783143 166.375 336.49682617 C167.82193216 345.39414011 169.40006986 354.21807971 171.34375 363.0222168 C172.73059147 369.31511316 173.84835983 375.66066848 175 382 C175.35384766 383.93746094 175.35384766 383.93746094 175.71484375 385.9140625 C177.45680102 395.56819799 178.99017329 405.25039806 180.51049805 414.94165039 C181.61315066 421.8650724 182.89149968 428.69440822 184.484375 435.5234375 C185 438 185 438 185 441 C84.02 441 -16.96 441 -121 441 C-121 436.38191921 -120.94790501 432.92179505 -120.18359375 428.54296875 C-119.17426739 422.33166134 -118.36119024 416.10941259 -117.59765625 409.86328125 C-117.4733725 408.85192108 -117.34908875 407.84056091 -117.22103882 406.79855347 C-116.70417053 402.58328779 -116.19021042 398.36767987 -115.67993164 394.15161133 C-113.21658117 373.84356697 -113.21658117 373.84356697 -111.53125 364.23046875 C-109.5873047 353.11017695 -108.26933238 341.90712486 -106.89282227 330.70507812 C-106.43824041 327.00602492 -105.97839339 323.30765634 -105.51757812 319.609375 C-104.14897168 308.58645119 -102.79321769 297.56347652 -101.61839294 286.51794434 C-101.0836431 281.52999965 -100.34752533 276.59281208 -99.5546875 271.640625 C-98.72619605 266.20292056 -98.03351033 260.74911447 -97.33093262 255.29391479 C-96.14110367 246.05568933 -94.92748942 236.82067149 -93.7109375 227.5859375 C-93.49095818 225.91515785 -93.27099287 224.24437636 -93.05104065 222.57359314 C-92.36758091 217.38236638 -91.68381912 212.19117943 -91 207 C-90.78443349 205.36347459 -90.56886749 203.72694912 -90.353302 202.09042358 C-90.03757743 199.69353317 -89.72184938 197.29664321 -89.40611172 194.89975452 C-88.56578991 188.52050039 -87.72564591 182.14122286 -86.88563633 175.7619276 C-86.25090325 170.94171247 -85.6158304 166.12154225 -84.98053551 161.30140114 C-84.55826628 158.0966679 -84.13644313 154.891876 -83.71461868 151.6870842 C-83.40549954 149.34036385 -83.09564759 146.99374107 -82.78573608 144.64712524 C-81.79070156 137.10075568 -80.81347958 129.55270806 -79.87158203 121.99951172 C-79.60433649 119.87175461 -79.3368001 117.74403421 -79.06924629 115.61631584 C-78.82431206 113.65320757 -78.5853876 111.68935237 -78.34666443 109.72547913 C-76.37035708 93.99538093 -76.37035708 93.99538093 -71.1875 88.0625 C-70.38183594 87.11890625 -69.57617188 86.1753125 -68.74609375 85.203125 C-68.30507324 84.69201172 -67.86405273 84.18089844 -67.40966797 83.65429688 C-64.79747887 80.58879751 -62.28153621 77.44461769 -59.75 74.3125 C-58.6357271 72.93985211 -57.52113965 71.5674595 -56.40625 70.1953125 C-55.2708099 68.79689403 -54.13539334 67.39845644 -53 66 C-50.75023322 63.22897718 -48.50022463 60.45815103 -46.25 57.6875 C-45.70520996 57.0164624 -45.16041992 56.3454248 -44.59912109 55.65405273 C-41.53678641 51.88405913 -38.4611218 48.12557151 -35.375 44.375 C-31.64081595 39.81929546 -28.002126 35.19466124 -24.37548828 30.5534668 C-20.17844839 25.19608596 -15.88633954 19.91888027 -11.58422852 14.64575195 C-7.65088677 9.81860433 -3.78012317 4.94852488 0 0 Z " fill="#468EC1" transform="translate(712,1479)"/>
<path d="M0 0 C2.36296941 3.54445411 2.24734421 5.00698548 2.24050903 9.2071991 C2.24463303 11.15705467 2.24463303 11.15705467 2.24884033 13.14630127 C2.24176199 14.58996674 2.23449237 16.03363128 2.22705078 17.47729492 C2.22648674 18.99495944 2.22680309 20.5126245 2.22793579 22.0302887 C2.22851057 26.15399411 2.21673597 30.27758361 2.20278788 34.40126204 C2.19030143 38.70942205 2.18911167 43.01758458 2.18673706 47.32575989 C2.18051615 55.48552452 2.16409707 63.64523569 2.14403808 71.80497676 C2.12169808 81.09385846 2.11069043 90.3827427 2.10064721 99.67164457 C2.07973137 118.78112672 2.04454353 137.89055906 2 157 C1.21085205 157.30587036 0.4217041 157.61174072 -0.39135742 157.92687988 C-2.77577686 158.90776108 -4.34493884 159.84538998 -6.3125 161.46875 C-7.20255737 162.19360596 -7.20255737 162.19360596 -8.1105957 162.93310547 C-8.73409912 163.45018066 -9.35760254 163.96725586 -10 164.5 C-11.34684219 165.59735407 -12.69451166 166.69369347 -14.04296875 167.7890625 C-15.047229 168.60745605 -15.047229 168.60745605 -16.07177734 169.44238281 C-18.78437597 171.63361847 -21.54272635 173.75631673 -24.3125 175.875 C-35.50322962 184.436319 -46.60901755 193.10782465 -57.68041992 201.82275391 C-64.65904433 207.31200737 -71.67398028 212.75459719 -78.68554688 218.20166016 C-82.45815634 221.13299363 -86.22900355 224.06659198 -90 227 C-91.49999123 228.16667794 -92.99999124 229.3333446 -94.5 230.5 C-95.2425 231.0775 -95.985 231.655 -96.75 232.25 C-121.50000001 251.5 -121.50000001 251.5 -123.75097656 253.25073242 C-125.24775643 254.41491259 -126.74450134 255.5791377 -128.24121094 256.7434082 C-132.04019058 259.69849173 -135.83981465 262.65274014 -139.640625 265.60546875 C-146.43929352 270.88821794 -153.23468481 276.17457332 -160 281.5 C-165.98655421 286.21241245 -171.98890194 290.90435512 -178.01611328 295.56469727 C-182.04625145 298.68381956 -186.04562361 301.83392096 -190.0078125 305.0390625 C-190.82282227 305.69156982 -191.63783203 306.34407715 -192.47753906 307.01635742 C-194.04764165 308.27451804 -195.60986254 309.54259328 -197.16308594 310.8215332 C-198.22317871 311.66590942 -198.22317871 311.66590942 -199.3046875 312.52734375 C-199.92327637 313.02999756 -200.54186523 313.53265137 -201.17919922 314.05053711 C-203 315 -203 315 -205.02075195 314.79833984 C-207.07762865 313.96868809 -208.599643 313.04009688 -210.36328125 311.69921875 C-210.99516357 311.22274902 -211.6270459 310.7462793 -212.27807617 310.25537109 C-212.94943604 309.73797363 -213.6207959 309.22057617 -214.3125 308.6875 C-215.01673096 308.15205566 -215.72096191 307.61661133 -216.4465332 307.06494141 C-221.88245347 302.91166765 -227.23584203 298.65755074 -232.56152344 294.36425781 C-236.5238716 291.1705676 -240.52027017 288.02941241 -244.5625 284.9375 C-248.96212521 281.5722149 -253.33664259 278.17813605 -257.6875 274.75 C-263.02740232 270.54403062 -268.38320684 266.3591063 -273.75 262.1875 C-274.50466553 261.600896 -275.25933105 261.01429199 -276.03686523 260.40991211 C-278.3577045 258.60634319 -280.67880247 256.8031078 -283 255 C-286.08367171 252.60460175 -289.16707915 250.20886455 -292.25 247.8125 C-292.99886475 247.23040771 -293.74772949 246.64831543 -294.51928711 246.04858398 C-299.1283421 242.46331426 -303.72515139 238.86298753 -308.3125 235.25 C-313.12601515 231.45956171 -317.96632636 227.70640595 -322.82763672 223.97729492 C-333.50182552 215.78372746 -344.10693859 207.50023343 -354.68041992 199.17724609 C-360.87932696 194.30130351 -367.10748809 189.46311155 -373.3359375 184.625 C-376.4690518 182.19120629 -379.59904884 179.75348627 -382.7265625 177.3125 C-384.2759483 176.10404694 -385.8254261 174.89571184 -387.375 173.6875 C-388.12031982 173.10605225 -388.86563965 172.52460449 -389.63354492 171.92553711 C-394.99602209 167.75286887 -400.4216962 163.67717095 -405.91015625 159.671875 C-408 158 -408 158 -409 156 C-409.09296045 154.32744961 -409.12191966 152.65117464 -409.12025452 150.9760437 C-409.12231651 149.38164459 -409.12231651 149.38164459 -409.12442017 147.7550354 C-409.12082489 146.5840329 -409.11722961 145.4130304 -409.11352539 144.20654297 C-409.11367142 142.97730103 -409.11381744 141.74805908 -409.1139679 140.48156738 C-409.11338954 137.10573658 -409.10836537 133.72996652 -409.10139394 130.35414648 C-409.09515358 126.82806927 -409.09455606 123.3019913 -409.09336853 119.77590942 C-409.09025723 113.09651676 -409.08204655 106.41714041 -409.07201904 99.73775494 C-409.06085166 92.13446975 -409.05534588 84.53118379 -409.05032361 76.92789245 C-409.03986378 61.28525217 -409.02226822 45.64262819 -409 30 C-404.26540979 31.5043331 -400.19855363 33.47988183 -395.9375 36 C-381.24860578 44.44758618 -365.87249942 51.42302117 -349.97705078 57.26806641 C-348.20538743 57.92396252 -346.44373155 58.60674306 -344.68359375 59.29296875 C-332.75767631 63.81457426 -320.33544512 66.81870384 -308 70 C-306.90816406 70.28319092 -305.81632813 70.56638184 -304.69140625 70.8581543 C-303.63566406 71.12797119 -302.57992187 71.39778809 -301.4921875 71.67578125 C-300.07848877 72.03796753 -300.07848877 72.03796753 -298.63623047 72.4074707 C-295.44897118 73.12385136 -292.303205 73.46879849 -289.0546875 73.7578125 C-286.4328146 74.06685455 -283.94944403 74.78507327 -281.40234375 75.4609375 C-263.98694064 79.36878405 -245.77830584 79.18665319 -228.03198242 79.18530273 C-224.83563812 79.18748421 -221.63964281 79.20569355 -218.44335938 79.22460938 C-200.11368801 79.27630259 -182.31981283 77.61155309 -164.25 74.625 C-163.58644501 74.51639648 -162.92289001 74.40779297 -162.23922729 74.29589844 C-152.34448204 72.66986014 -142.6257107 70.83624468 -133 68 C-131.81535156 67.65582031 -130.63070313 67.31164063 -129.41015625 66.95703125 C-125.2512925 65.69950073 -121.1259357 64.36071608 -117 63 C-116.05866211 62.69465332 -115.11732422 62.38930664 -114.14746094 62.07470703 C-97.88572416 56.77308303 -82.34411959 50.55892585 -67 43 C-66.08347656 42.54866699 -65.16695312 42.09733398 -64.22265625 41.63232422 C-41.14456879 30.14708521 -20.27128895 15.82642161 0 0 Z " fill="#E2B28D" transform="translate(918,1103)"/>
<path d="M0 0 C1.10988281 0.350625 2.21976563 0.70125 3.36328125 1.0625 C15.31662602 5.18533029 25.19278656 11.7945202 34.125 20.625 C34.92357422 21.41390625 34.92357422 21.41390625 35.73828125 22.21875 C40.488763 27.12798821 44.57310207 32.30230931 44.5625 39.4375 C44.35402697 45.05082924 42.63525503 48.77102137 39 53 C34.5066527 57.08486118 30.29159121 58.49258862 24.29296875 58.296875 C17.93353067 57.47350653 14.72357775 53.81629536 10.75 49.1875 C2.74918559 39.9125833 -8.332191 33.81401804 -20.6328125 32.77832031 C-41.19239328 31.9499901 -61.79388835 34.45518895 -78.1875 48.1875 C-80.0209517 50.0209517 -81.83467078 51.87441701 -83.625 53.75 C-87.91790853 57.81696597 -91.96711261 58.46005543 -97.72265625 58.31640625 C-102.6373036 57.63358218 -105.91680483 55.14174627 -109.3125 51.5625 C-113.03108089 45.91576605 -114.11141552 40.70854416 -113 34 C-106.22804787 18.39618634 -87.35965901 9.35583678 -72.42797852 3.32543945 C-49.86229822 -5.34178052 -23.09333096 -7.93262442 0 0 Z " fill="#716155" transform="translate(919,543)"/>
<path d="M0 0 C30.50836684 -1.23422749 58.96966558 9.03054325 81.53466797 29.73486328 C86.96789323 35.54312533 87.28478322 39.98575917 87.08154297 47.77392578 C86.55375778 52.93044777 84.89148931 55.24660763 81.04638672 58.55126953 C76.59884612 61.81940159 72.68630776 62.89007053 67.18310547 62.57080078 C61.06179867 61.37592169 56.98364208 57.35875397 52.55419922 53.21923828 C37.13546815 39.29518012 17.60443782 35.9977591 -2.50048828 36.68017578 C-14.85539616 37.39472457 -25.04856152 41.45483008 -33.62939453 50.62939453 C-35.14707888 52.3671815 -36.66277955 54.10670335 -38.17626953 55.84814453 C-42.15093198 60.1360074 -45.8740347 62.26368706 -51.82080078 62.53173828 C-57.31660249 62.25181629 -60.79084792 60.35693027 -64.94580078 56.78173828 C-69.04717633 52.0152748 -70.98656221 47.80262129 -70.72314453 41.51220703 C-68.47931695 29.84053245 -57.00218773 20.73820432 -47.82080078 14.28173828 C-33.03669863 4.28212127 -17.61460419 0.73505267 0 0 Z " fill="#736357" transform="translate(500.25830078125,538.90576171875)"/>
<path d="M0 0 C3.48720098 0.99970349 5.00262177 2.91597544 7.31640625 5.6640625 C8.984375 8.7578125 8.984375 8.7578125 10.50390625 12.1640625 C14.11497189 19.85507047 18.93899616 26.13177239 24.31640625 32.6640625 C24.8165625 33.32921875 25.31671875 33.994375 25.83203125 34.6796875 C36.49274729 48.42302023 54.94959478 58.00507339 71.31640625 62.6640625 C73.31690958 63.32921726 75.31694584 63.99577924 77.31640625 64.6640625 C83.32737105 66.36716919 89.07919737 67.30502638 95.31640625 67.6640625 C96.43402344 67.72980469 97.55164063 67.79554687 98.703125 67.86328125 C128.08230825 68.73891981 155.39067508 58.57572217 177.08984375 38.8359375 C185.60297009 30.71045796 191.63934851 20.90384835 197.31640625 10.6640625 C201.19103312 4.10627998 201.19103312 4.10627998 203.31640625 2.6640625 C207.51853796 2.02977847 210.31661434 2.25855433 213.75390625 4.7265625 C216.31640625 7.6640625 216.31640625 7.6640625 216.69140625 10.8984375 C216.26827374 15.14739315 214.95290911 18.20411171 212.87890625 21.8515625 C212.51982178 22.50084717 212.1607373 23.15013184 211.79077148 23.8190918 C197.67944176 48.6990329 176.31771093 66.5248672 150.31640625 77.6640625 C149.25421875 78.16808594 148.19203125 78.67210937 147.09765625 79.19140625 C142.20404514 81.28115843 137.00626711 82.21254847 131.81640625 83.2890625 C130.80964844 83.505625 129.80289063 83.7221875 128.765625 83.9453125 C95.94157827 90.91450722 62.5425371 84.78281646 34.31640625 66.6640625 C14.21725973 53.37901687 0.3107438 35.33627574 -9.68359375 13.6640625 C-10.01359375 13.0040625 -10.34359375 12.3440625 -10.68359375 11.6640625 C-11.08551223 8.04679614 -10.88468227 6.06623954 -9.24609375 2.7890625 C-6.02203463 0.11545249 -4.07119145 0.07080333 0 0 Z " fill="#746457" transform="translate(611.68359375,960.3359375)"/>
<path d="M0 0 C7.89021498 4.54476383 12.57250062 9.16168813 15.625 17.8125 C16.30790172 22.56414999 16.30370747 27.24094278 16.25390625 32.03515625 C16.25473728 33.38936046 16.25720545 34.74356454 16.26121521 36.09776306 C16.26405516 38.91941116 16.24955042 41.74025754 16.22192383 44.56176758 C16.18780942 48.15498169 16.1938865 51.74676774 16.2125864 55.3400507 C16.22321873 58.13105407 16.21416329 60.92173237 16.19920158 63.71270561 C16.19159519 65.67394074 16.19882678 67.63521569 16.20643616 69.59645081 C16.06660171 80.26597492 13.63205674 87.33576487 6.359375 95.15234375 C0.47581076 100.78413385 -5.63972607 101.20456602 -13.51538086 101.265625 C-20.09249621 101.10026298 -24.49838221 99.13205096 -29.375 94.8125 C-31.67652921 92.30040535 -33.58491231 89.70675392 -35.375 86.8125 C-35.88785553 86.06993958 -36.40071106 85.32737915 -36.92910767 84.56231689 C-38.6069499 81.37137466 -38.75499339 79.37539505 -38.76318359 75.78808594 C-38.77264008 74.59624695 -38.78209656 73.40440796 -38.7918396 72.17645264 C-38.78576691 70.89619202 -38.77969421 69.6159314 -38.7734375 68.296875 C-38.77546114 66.95794517 -38.77837499 65.61901641 -38.78213501 64.28009033 C-38.78655089 61.47584525 -38.78015556 58.67188738 -38.76611328 55.86767578 C-38.74908763 52.29583509 -38.75882435 48.72467408 -38.77683067 45.15285873 C-38.78774552 42.38679012 -38.78418611 39.62087872 -38.7764473 36.85480499 C-38.77350578 34.9046433 -38.78253057 32.95447519 -38.7918396 31.0043335 C-38.71177095 20.80619661 -37.45398229 13.16442702 -30.34765625 5.60546875 C-21.74146846 -2.21678906 -10.89700387 -5.27487744 0 0 Z " fill="#736357" transform="translate(882.375,662.1875)"/>
<path d="M0 0 C7.27895127 4.02584199 12.00148915 9.69936974 14.6875 17.5625 C14.95492554 20.45697021 14.95492554 20.45697021 14.97802734 23.67871094 C14.99078705 24.89057068 15.00354675 26.10243042 15.01669312 27.35101318 C15.01891876 28.65314758 15.02114441 29.95528198 15.0234375 31.296875 C15.02987234 32.65822487 15.03660121 34.01957337 15.04360962 35.38092041 C15.05556492 38.23216961 15.05929243 41.08329783 15.05810547 43.93457031 C15.05790276 47.56703434 15.0851611 51.19871173 15.11964989 54.83098984 C15.14202343 57.64336624 15.14593979 60.45555676 15.14488602 63.268013 C15.14835802 65.25146799 15.16996 67.23486495 15.19198608 69.21820068 C15.13942046 79.67850146 12.8838119 87.14827014 5.66015625 94.83203125 C-0.11540761 99.89851598 -6.12955903 101.14899598 -13.6796875 100.8125 C-21.41786395 100.07771767 -26.54649556 97.93040614 -32.3125 92.5625 C-39.18422317 84.0192766 -39.77148674 75.75319033 -39.74609375 65.19140625 C-39.7513356 63.91450424 -39.75657745 62.63760223 -39.76197815 61.32200623 C-39.76838339 58.62963703 -39.76853317 55.93812118 -39.75854492 53.24584961 C-39.74706029 49.81855069 -39.76727768 46.39228297 -39.79646206 42.96511936 C-39.81936043 39.66554445 -39.81235139 36.36604189 -39.80859375 33.06640625 C-39.81982773 31.84740128 -39.83106171 30.6283963 -39.84263611 29.37245178 C-39.76028508 19.23567203 -37.3528948 11.79593397 -30.34765625 4.359375 C-21.33413316 -3.59882197 -10.90784375 -4.87516612 0 0 Z " fill="#736357" transform="translate(534.3125,662.4375)"/>
<path d="M0 0 C2.19140625 0.46484375 2.19140625 0.46484375 5.19140625 2.27734375 C7.27737778 5.60186087 7.42233291 6.64535423 7.56640625 10.40234375 C8.08200935 20.19880263 13.00795983 28.88079734 20.00390625 35.58984375 C29.71634358 43.38592573 38.95470304 44.5286082 51.09130859 43.70117188 C61.50727645 42.5290425 69.67000059 36.86640138 76.359375 29.08984375 C80.42941274 23.25814789 82.16078807 16.56081936 82.62890625 9.52734375 C82.9088452 6.18024758 83.25286358 5.37358892 85.25390625 2.40234375 C88.53912158 0.2354996 90.38605477 -0.30376375 94.25390625 0.00390625 C96.19140625 0.46484375 96.19140625 0.46484375 99.19140625 2.21484375 C102.82075884 8.11254171 101.87890256 14.20019647 100.4921875 20.78515625 C96.32615359 35.65631528 87.65976116 47.75583528 74.19140625 55.46484375 C73.38574219 55.92890625 72.58007812 56.39296875 71.75 56.87109375 C58.63621685 63.93078296 41.44192494 64.89149848 27.12890625 60.90234375 C11.7519868 55.29104792 -0.1886495 44.49049952 -7.09375 29.71484375 C-10.42863547 21.68243143 -11.62710059 14.17953419 -10.80859375 5.46484375 C-8.48580601 0.21332363 -5.38343588 -0.36362582 0 0 Z " fill="#E2A379" transform="translate(669.80859375,834.53515625)"/>
</svg>
