<?xml version="1.0" encoding="UTF-8"?>
<svg version="1.1" xmlns="http://www.w3.org/2000/svg" width="100" height="100">
<path d="M0 0 C9.40707465 5.68464327 15.68680199 13.83643636 18.546875 24.5390625 C19.81816587 35.18018906 19.08411233 45.14253855 13.546875 54.5390625 C12.556875 55.5290625 12.556875 55.5290625 11.546875 56.5390625 C13.031875 57.0340625 13.031875 57.0340625 14.546875 57.5390625 C14.546875 58.8590625 14.546875 60.1790625 14.546875 61.5390625 C13.226875 61.5390625 11.906875 61.5390625 10.546875 61.5390625 C10.216875 60.8790625 9.886875 60.2190625 9.546875 59.5390625 C9.01320313 59.99796875 8.47953125 60.456875 7.9296875 60.9296875 C-2.56169886 69.56965274 -11.91574525 71.83539098 -25.31445312 70.80957031 C-34.8744138 69.60038807 -42.8797787 64.22976046 -48.828125 56.828125 C-51.453125 53.09114583 -51.453125 53.09114583 -51.453125 50.5390625 C-52.2575 50.5596875 -53.061875 50.5803125 -53.890625 50.6015625 C-56.453125 50.5390625 -56.453125 50.5390625 -57.453125 49.5390625 C-57.578125 46.5390625 -57.578125 46.5390625 -57.453125 43.5390625 C-56.958125 43.0440625 -56.958125 43.0440625 -56.453125 42.5390625 C-56.37687052 40.5797461 -56.30610979 38.62003955 -56.26513672 36.65966797 C-55.96707395 24.96481162 -53.82146128 15.03480794 -45.4765625 6.2890625 C-32.87910695 -4.60603419 -15.10756629 -7.47031593 0 0 Z " fill="#FBDFA1" transform="translate(68.453125,16.4609375)"/>
<path d="M0 0 C1.17018677 -0.00717545 1.17018677 -0.00717545 2.36401367 -0.01449585 C4.00799586 -0.01788758 5.65204615 -0.00873581 7.29589844 0.01220703 C9.80557295 0.03898858 12.31077629 0.0124405 14.8203125 -0.01953125 C16.42188482 -0.01622702 18.02345438 -0.00982049 19.625 0 C20.37096436 -0.01012115 21.11692871 -0.02024231 21.88549805 -0.03067017 C25.63228986 0.05318364 27.67900936 0.5723589 30.78710938 2.70751953 C33.31575699 6.39868667 33.50416806 9.30829857 33.40625 13.6328125 C33.40629028 14.39074097 33.40633057 15.14866943 33.40637207 15.92956543 C33.40102829 17.52653326 33.38349405 19.12350144 33.35449219 20.72021484 C33.3126257 23.15674693 33.31342741 25.5905124 33.3203125 28.02734375 C33.30981895 29.58335243 33.29687995 31.13934694 33.28125 32.6953125 C33.28104858 33.41940308 33.28084717 34.14349365 33.28063965 34.88952637 C33.17846355 39.28309844 32.5886269 42.20780086 29.8125 45.6640625 C24.17080153 47.54462866 17.82467621 46.97042351 11.90722656 47.01416016 C10.2641789 47.03072707 8.62120354 47.05802729 6.97851562 47.09619141 C4.60248672 47.15105954 2.22814017 47.17284468 -0.1484375 47.1875 C-0.87880219 47.21016937 -1.60916687 47.23283875 -2.36166382 47.25619507 C-6.08291123 47.24083931 -8.05503818 46.75447468 -11.1484375 44.64306641 C-13.71499374 40.89341133 -13.91120814 37.87265363 -13.8515625 33.4765625 C-13.85634613 32.69643799 -13.86112976 31.91631348 -13.86605835 31.11254883 C-13.86945008 29.46856664 -13.86029831 27.82451635 -13.83935547 26.18066406 C-13.81257392 23.67098955 -13.839122 21.16578621 -13.87109375 18.65625 C-13.86778952 17.05467768 -13.86138299 15.45310812 -13.8515625 13.8515625 C-13.86168365 13.10559814 -13.87180481 12.35963379 -13.88223267 11.59106445 C-13.79860853 7.85453502 -13.27904988 5.7980288 -11.15771484 2.69384766 C-7.41296813 0.13476298 -4.38847906 -0.05954236 0 0 Z " fill="#6E86AA" transform="translate(40.1875,26.3359375)"/>
<path d="M0 0 C2.4375 0.1875 2.4375 0.1875 3.4375 1.1875 C3.4053403 2.79256159 3.33684075 4.39696674 3.25 6 C3.19539216 10.1349867 3.19539216 10.1349867 5.125 13.75 C7.61368244 15.29701881 9.53842075 15.86538008 12.4375 16.1875 C12.7675 15.5275 13.0975 14.8675 13.4375 14.1875 C15.77044775 14.14508277 18.10452567 14.14657063 20.4375 14.1875 C21.4375 15.1875 21.4375 15.1875 21.5625 18.1875 C21.4375 21.1875 21.4375 21.1875 20.4375 22.1875 C13.86127969 23.08292285 7.90369035 22.02306321 2.4375 18.1875 C-1.9013535 13.47570521 -4.5625 8.64076434 -4.5625 2.1875 C-2.5625 0.1875 -2.5625 0.1875 0 0 Z " fill="#F8F7F7" transform="translate(41.5625,37.8125)"/>
<path d="M0 0 C3 0.125 3 0.125 4 1.125 C4.125 4.125 4.125 4.125 4 7.125 C3 8.125 3 8.125 0 8.25 C-3 8.125 -3 8.125 -4 7.125 C-4.125 4.125 -4.125 4.125 -4 1.125 C-3 0.125 -3 0.125 0 0 Z " fill="#F0BB19" transform="translate(83,10.875)"/>
<path d="M0 0 C2.5625 0.1875 2.5625 0.1875 4.5625 2.1875 C4.00694444 6.74305556 4.00694444 6.74305556 2.5625 8.1875 C0.0625 8.3125 0.0625 8.3125 -2.4375 8.1875 C-3.4375 7.1875 -3.4375 7.1875 -3.5625 4.1875 C-3.39891479 0.26145498 -3.39891479 0.26145498 0 0 Z " fill="#FACD5A" transform="translate(14.4375,58.8125)"/>
<path d="M0 0 C1.98 0.495 1.98 0.495 4 1 C3.67 2.32 3.34 3.64 3 5 C1.68 4.67 0.36 4.34 -1 4 C-0.67 2.68 -0.34 1.36 0 0 Z " fill="#FEFBF4" transform="translate(17,51)"/>
<path d="M0 0 C1.32 0 2.64 0 4 0 C4 1.32 4 2.64 4 4 C2.68 4 1.36 4 0 4 C0 2.68 0 1.36 0 0 Z " fill="#ED3D53" transform="translate(23,85)"/>
<path d="M0 0 C1.32 0 2.64 0 4 0 C4 1.32 4 2.64 4 4 C2.68 4 1.36 4 0 4 C0 2.68 0 1.36 0 0 Z " fill="#ED3D53" transform="translate(11,27)"/>
<path d="M0 0 C1.32 0 2.64 0 4 0 C4 1.32 4 2.64 4 4 C2.68 4 1.36 4 0 4 C0 2.68 0 1.36 0 0 Z " fill="#ED3D53" transform="translate(85,22)"/>
<path d="M0 0 C0.66 0 1.32 0 2 0 C2 0.66 2 1.32 2 2 C1.34 2 0.68 2 0 2 C0 1.34 0 0.68 0 0 Z " fill="#F0BB18" transform="translate(76,12)"/>
</svg>
